<?xml version="1.0" encoding="UTF-8" standalone="no"?>
<svg
   xmlns:dc="http://purl.org/dc/elements/1.1/"
   xmlns:cc="http://creativecommons.org/ns#"
   xmlns:rdf="http://www.w3.org/1999/02/22-rdf-syntax-ns#"
   xmlns:svg="http://www.w3.org/2000/svg"
   xmlns="http://www.w3.org/2000/svg"
   xmlns:sodipodi="http://sodipodi.sourceforge.net/DTD/sodipodi-0.dtd"
   xmlns:inkscape="http://www.inkscape.org/namespaces/inkscape"
   version="1.1"
   x="0px"
   y="0px"
   viewBox="0 0 41.93 89.970001"
   enable-background="new 0 0 100 100"
   xml:space="preserve"
   id="svg4202"
   inkscape:version="0.91 r13725"
   sodipodi:docname="malt.svg"
   width="41.93"
   height="89.970001"><metadata
     id="metadata4228"><rdf:RDF><cc:Work
         rdf:about=""><dc:format>image/svg+xml</dc:format><dc:type
           rdf:resource="http://purl.org/dc/dcmitype/StillImage" /><dc:title></dc:title></cc:Work></rdf:RDF></metadata><defs
     id="defs4226" /><sodipodi:namedview
     pagecolor="#ffffff"
     bordercolor="#666666"
     borderopacity="1"
     objecttolerance="10"
     gridtolerance="10"
     guidetolerance="10"
     inkscape:pageopacity="0"
     inkscape:pageshadow="2"
     inkscape:window-width="1366"
     inkscape:window-height="710"
     id="namedview4224"
     showgrid="false"
     fit-margin-top="0"
     fit-margin-left="0"
     fit-margin-right="0"
     fit-margin-bottom="0"
     inkscape:zoom="3.7476659"
     inkscape:cx="-27.322256"
     inkscape:cy="73.646574"
     inkscape:window-x="0"
     inkscape:window-y="27"
     inkscape:window-maximized="1"
     inkscape:current-layer="svg4202"
     showguides="true"
     inkscape:guide-bbox="true"><sodipodi:guide
       position="42.159574,20.279289"
       orientation="0,1"
       id="guide4202" /><sodipodi:guide
       position="29.618435,56.968791"
       orientation="0,1"
       id="guide4219" /></sodipodi:namedview><path
     d="M 20.965,19.16 13.851023,33.000319 20.965,47.879 28.086195,33.264394 Z"
     id="path4204"
     inkscape:connector-curvature="0"
     style="fill:#ffffff;fill-opacity:1"
     sodipodi:nodetypes="ccccc" /><path
     d="m 23.504,15.733 2.912,3.985 0,-19.718 -3.144,0.037736 0,15.445264 c 0.076,0.084 0.164,0.157 0.232,0.25 z"
     id="path4206"
     inkscape:connector-curvature="0"
     style="fill:#ffffff;fill-opacity:1"
     sodipodi:nodetypes="cccccc" /><path
     d="M 1.5258789e-7,38.137004 2.007976,53.250843 19.34,62.313004 17.143918,49.233293 c 0,0 -10.7210297,-7.884564 -17.14391784741211,-11.096289 z"
     id="path4210"
     inkscape:connector-curvature="0"
     style="fill:#ffffff;fill-opacity:1"
     sodipodi:nodetypes="ccccc" /><path
     d="m 34.173,36.529 0,-30.336 -3.144,-0.00374 0,31.910737 z"
     id="path4218"
     inkscape:connector-curvature="0"
     style="fill:#ffffff;fill-opacity:1"
     sodipodi:nodetypes="ccccc" /><path
     d="m 40.524,33.353 1.406,-0.703 0,-17.082 -3.144,0.130925 0,18.524075 z"
     id="path4220"
     inkscape:connector-curvature="0"
     style="fill:#ffffff;fill-opacity:1"
     sodipodi:nodetypes="cccccc" /><path
     d="M 30.513,63.529 20.966,73.974 11.418,63.529 0.001,57.82 2.492952,71.543477 18.764,81.707 l 0,9.605 4.402,0.001 0,-9.605 L 39.299591,71.743864 41.93,57.821 Z"
     id="path4222"
     inkscape:connector-curvature="0"
     style="fill:#ffffff;fill-opacity:1"
     sodipodi:nodetypes="cccccccccccc" /><path
     d="M 41.93,38.256092 39.922018,53.369931 22.59,62.432092 24.786087,49.352381 c 0,0 10.721021,-7.884564 17.143913,-11.096289 z"
     id="path4210-4"
     inkscape:connector-curvature="0"
     style="fill:#ffffff;fill-opacity:1"
     sodipodi:nodetypes="ccccc" /><path
     d="m 18.426,15.733 -2.912,3.985 0,-19.718 3.144,0.037736 0,15.445264 c -0.076,0.084 -0.163999,0.157 -0.232,0.25 z"
     id="path4206-2"
     inkscape:connector-curvature="0"
     style="fill:#ffffff;fill-opacity:1"
     sodipodi:nodetypes="cccccc" /><path
     d="m 7.757001,36.529 0,-30.3360003 3.144,-0.0037 0,31.9107373 z"
     id="path4218-3"
     inkscape:connector-curvature="0"
     style="fill:#ffffff;fill-opacity:1"
     sodipodi:nodetypes="ccccc" /><path
     d="M 1.406,33.353 0,32.65 0,15.568 l 3.144,0.130925 0,18.524075 z"
     id="path4220-7"
     inkscape:connector-curvature="0"
     style="fill:#ffffff;fill-opacity:1"
     sodipodi:nodetypes="cccccc" /></svg>