<?xml version="1.0" encoding="UTF-8" standalone="no"?>
<svg
   xmlns:dc="http://purl.org/dc/elements/1.1/"
   xmlns:cc="http://creativecommons.org/ns#"
   xmlns:rdf="http://www.w3.org/1999/02/22-rdf-syntax-ns#"
   xmlns:svg="http://www.w3.org/2000/svg"
   xmlns="http://www.w3.org/2000/svg"
   xmlns:sodipodi="http://sodipodi.sourceforge.net/DTD/sodipodi-0.dtd"
   xmlns:inkscape="http://www.inkscape.org/namespaces/inkscape"
   version="1.1"
   x="0px"
   y="0px"
   viewBox="0 0 41.93 89.970001"
   enable-background="new 0 0 100 100"
   xml:space="preserve"
   id="svg4202"
   inkscape:version="0.91 r13725"
   sodipodi:docname="malt.svg"
   width="41.93"
   height="89.970001"><metadata
     id="metadata4228"><rdf:RDF><cc:Work
         rdf:about=""><dc:format>image/svg+xml</dc:format><dc:type
           rdf:resource="http://purl.org/dc/dcmitype/StillImage" /><dc:title /></cc:Work></rdf:RDF></metadata><defs
     id="defs4226" /><sodipodi:namedview
     pagecolor="#ffffff"
     bordercolor="#666666"
     borderopacity="1"
     objecttolerance="10"
     gridtolerance="10"
     guidetolerance="10"
     inkscape:pageopacity="0"
     inkscape:pageshadow="2"
     inkscape:window-width="1366"
     inkscape:window-height="710"
     id="namedview4224"
     showgrid="false"
     fit-margin-top="0"
     fit-margin-left="0"
     fit-margin-right="0"
     fit-margin-bottom="0"
     inkscape:zoom="3.7476659"
     inkscape:cx="-9.5638271"
     inkscape:cy="54.549675"
     inkscape:window-x="0"
     inkscape:window-y="27"
     inkscape:window-maximized="1"
     inkscape:current-layer="svg4202" /><path
     d="m 25.369,25.188 -4.404,-6.028 -4.404,6.028 c -3.626,4.963 -3.626,11.7 0,16.663 l 4.404,6.028 4.404,-6.028 c 3.626,-4.962 3.626,-11.7 0,-16.663 z"
     id="path4204"
     inkscape:connector-curvature="0"
     style="fill:#ffffff;fill-opacity:1" /><path
     d="m 23.504,17.305 2.912,3.985 0,-19.718 C 26.416,0.704 25.712,0 24.844,0 23.976,0 23.272,0.704 23.272,1.572 l 0,15.483 c 0.076,0.084 0.164,0.157 0.232,0.25 z"
     id="path4206"
     inkscape:connector-curvature="0"
     style="fill:#ffffff;fill-opacity:1" /><path
     d="m 18.426,17.305 c 0.068,-0.093 0.156,-0.166 0.233,-0.25 l 0,-15.483 C 18.659,0.704 17.955,0 17.087,0 16.219,0 15.515,0.704 15.515,1.572 l 0,19.718 2.911,-3.985 z"
     id="path4208"
     inkscape:connector-curvature="0"
     style="fill:#ffffff;fill-opacity:1" /><path
     d="M 11.417,43.447 0,37.738 0,43.385 c 0,5.429 3.067,10.392 7.923,12.82 l 11.417,5.709 0,-5.647 c 0,-5.429 -3.067,-10.392 -7.923,-12.82 z"
     id="path4210"
     inkscape:connector-curvature="0"
     style="fill:#ffffff;fill-opacity:1" /><path
     d="m 10.902,39.673 0,-31.908 c 0,-0.868 -0.704,-1.572 -1.572,-1.572 -0.868,0 -1.572,0.704 -1.572,1.572 l 0,30.336 3.144,1.572 z"
     id="path4212"
     inkscape:connector-curvature="0"
     style="fill:#ffffff;fill-opacity:1" /><path
     d="m 1.406,34.926 1.738,0.869 0,-18.655 C 3.144,16.272 2.44,15.568 1.572,15.568 0.704,15.568 0,16.272 0,17.14 l 0,17.083 1.406,0.703 z"
     id="path4214"
     inkscape:connector-curvature="0"
     style="fill:#ffffff;fill-opacity:1" /><path
     d="m 22.59,56.266 0,5.647 11.417,-5.709 c 4.856,-2.428 7.923,-7.391 7.923,-12.82 l 0,-5.647 -11.417,5.709 c -4.856,2.428 -7.923,7.391 -7.923,12.82 z"
     id="path4216"
     inkscape:connector-curvature="0"
     style="fill:#ffffff;fill-opacity:1" /><path
     d="m 34.173,38.101 0,-30.336 c 0,-0.868 -0.704,-1.572 -1.572,-1.572 -0.868,0 -1.572,0.704 -1.572,1.572 l 0,31.907 3.144,-1.571 z"
     id="path4218"
     inkscape:connector-curvature="0"
     style="fill:#ffffff;fill-opacity:1" /><path
     d="m 40.524,34.925 1.406,-0.703 0,-17.082 c 0,-0.868 -0.704,-1.572 -1.572,-1.572 -0.868,0 -1.572,0.704 -1.572,1.572 l 0,18.655 1.738,-0.87 z"
     id="path4220"
     inkscape:connector-curvature="0"
     style="fill:#ffffff;fill-opacity:1" /><path
     d="m 30.513,61.529 c -4.856,2.428 -7.923,7.391 -7.923,12.82 0,0.897 -0.727,1.625 -1.624,1.625 -0.897,0 -1.625,-0.727 -1.625,-1.625 l 0,0 c 0,-5.429 -3.067,-10.392 -7.923,-12.82 L 10e-4,55.82 l 0,5.647 c 0,5.429 3.067,10.392 7.923,12.82 l 10.84,5.42 0,7.605 c 0,1.469 0.985,2.658 2.201,2.658 1.215,0 2.201,-1.189 2.201,-2.657 l 0,-7.605 10.841,-5.42 c 4.856,-2.428 7.923,-7.391 7.923,-12.82 l 0,-5.647 -11.417,5.708 z"
     id="path4222"
     inkscape:connector-curvature="0"
     style="fill:#ffffff;fill-opacity:1" /></svg>